<?xml version="1.0" encoding="utf-8"?>
<!-- Generator: Adobe Illustrator 19.2.1, SVG Export Plug-In . SVG Version: 6.00 Build 0)  -->
<svg version="1.1" id="Layer_1" xmlns="http://www.w3.org/2000/svg" xmlns:xlink="http://www.w3.org/1999/xlink" x="0px" y="0px"
	 viewBox="0 0 160 49" style="enable-background:new 0 0 160 49;" xml:space="preserve">
<style type="text/css">
	.st0{fill:#F05926;}
	.st1{fill:#1D4077;}
</style>
<path class="st0" d="M96.5,29.5c0,0-39.9-5-61-28.4l-35,28.4h6.8V46h4.1V25.9L35.7,6.6c0,0,17.5,16,43.1,22.6L96.5,29.5z"/>
<rect x="36.2" y="17" class="st0" width="4.5" height="4.5"/>
<rect x="36.2" y="22.7" class="st0" width="4.5" height="4.5"/>
<rect x="29.6" y="22.7" class="st0" width="4.5" height="4.5"/>
<rect x="29.6" y="17" class="st0" width="4.5" height="4.5"/>
<g>
	<path class="st1" d="M27.9,46.1h-3.5l-1-3.2h-5.1l-1,3.2h-3.5l5.2-14.4h3.9L27.9,46.1z M22.6,40.4l-1.5-4.8
		c-0.1-0.4-0.2-0.8-0.2-1.3h-0.1c0,0.4-0.1,0.8-0.3,1.3l-1.6,4.9H22.6z"/>
	<path class="st1" d="M39.4,45.3c-0.6,0.3-1.2,0.5-2,0.7c-0.7,0.2-1.5,0.3-2.4,0.3c-1,0-1.8-0.1-2.6-0.4s-1.4-0.6-2-1.1
		s-1-1-1.2-1.7c-0.3-0.7-0.4-1.4-0.4-2.3s0.2-1.6,0.5-2.3s0.8-1.3,1.4-1.8c0.6-0.5,1.3-0.9,2.1-1.2c0.8-0.3,1.7-0.4,2.7-0.4
		c1.3,0,2.4,0.2,3.3,0.5V38c-0.9-0.5-1.9-0.7-3.1-0.7c-0.5,0-1,0.1-1.4,0.2c-0.4,0.2-0.8,0.4-1.1,0.7c-0.3,0.3-0.6,0.7-0.7,1.1
		s-0.3,0.9-0.3,1.4c0,0.5,0.1,1,0.2,1.4s0.3,0.8,0.6,1c0.3,0.3,0.6,0.5,0.9,0.6c0.4,0.1,0.8,0.2,1.2,0.2c0.3,0,0.5,0,0.7-0.1
		c0.2,0,0.3-0.1,0.5-0.2v-1.8h-1.9v-2.2h5.1V45.3z"/>
	<path class="st1" d="M45.5,46.1h-3.2V35.3h3.2V46.1z"/>
	<path class="st1" d="M59.4,46.1h-3.1l-4.1-5.9c-0.1-0.2-0.3-0.4-0.4-0.5c-0.1-0.2-0.2-0.3-0.2-0.4h0c0,0.2,0,0.4,0,0.7
		c0,0.3,0,0.7,0,1.1v5h-2.9V35.3h3.3l3.9,5.7c0.1,0.2,0.2,0.3,0.3,0.5s0.2,0.3,0.3,0.5h0c0-0.1,0-0.3,0-0.6c0-0.3,0-0.6,0-1v-5.1
		h2.9V46.1z"/>
	<path class="st1" d="M72.2,45.3c-0.6,0.3-1.2,0.5-2,0.7c-0.7,0.2-1.5,0.3-2.4,0.3c-1,0-1.8-0.1-2.6-0.4s-1.4-0.6-2-1.1
		s-1-1-1.2-1.7c-0.3-0.7-0.4-1.4-0.4-2.3s0.2-1.6,0.5-2.3s0.8-1.3,1.4-1.8c0.6-0.5,1.3-0.9,2.1-1.2c0.8-0.3,1.7-0.4,2.7-0.4
		c1.3,0,2.4,0.2,3.3,0.5V38c-0.9-0.5-1.9-0.7-3.1-0.7c-0.5,0-1,0.1-1.4,0.2c-0.4,0.2-0.8,0.4-1.1,0.7c-0.3,0.3-0.6,0.7-0.7,1.1
		S65,40.2,65,40.7c0,0.5,0.1,1,0.2,1.4s0.3,0.8,0.6,1c0.3,0.3,0.6,0.5,0.9,0.6c0.4,0.1,0.8,0.2,1.2,0.2c0.3,0,0.5,0,0.7-0.1
		c0.2,0,0.3-0.1,0.5-0.2v-1.8h-1.9v-2.2h5.1V45.3z"/>
	<path class="st1" d="M84.2,46.1h-3.2V31.6h3.2V46.1z"/>
	<path class="st1" d="M98.2,46.1H95l-4.1-5.9c-0.1-0.2-0.3-0.4-0.4-0.5c-0.1-0.2-0.2-0.3-0.2-0.4h0c0,0.2,0,0.4,0,0.7
		c0,0.3,0,0.7,0,1.1v5h-2.9V35.3h3.3l3.9,5.7c0.1,0.2,0.2,0.3,0.3,0.5c0.1,0.2,0.2,0.3,0.3,0.5h0c0-0.1,0-0.3,0-0.6c0-0.3,0-0.6,0-1
		v-5.1h2.9V46.1z"/>
	<path class="st0" d="M119.5,46.1h-3.3v-5.9h-6v5.9h-3.2V31.6h3.2v5.8h6v-5.8h3.3V46.1z"/>
	<path class="st0" d="M127.6,46.3c-0.9,0-1.6-0.1-2.3-0.4c-0.7-0.3-1.3-0.6-1.8-1.1c-0.5-0.5-0.9-1.1-1.2-1.7
		c-0.3-0.7-0.4-1.4-0.4-2.2c0-0.9,0.1-1.6,0.4-2.3s0.7-1.3,1.2-1.8c0.5-0.5,1.1-0.9,1.9-1.2c0.7-0.3,1.5-0.4,2.4-0.4
		c0.8,0,1.6,0.1,2.3,0.4s1.3,0.6,1.8,1.1c0.5,0.5,0.9,1.1,1.1,1.7c0.3,0.7,0.4,1.4,0.4,2.3c0,0.8-0.1,1.6-0.4,2.3s-0.7,1.3-1.2,1.8
		c-0.5,0.5-1.1,0.9-1.8,1.2C129.3,46.1,128.5,46.3,127.6,46.3z M127.7,37.4c-0.4,0-0.7,0.1-1.1,0.2c-0.3,0.2-0.6,0.4-0.8,0.7
		c-0.2,0.3-0.4,0.6-0.5,1c-0.1,0.4-0.2,0.9-0.2,1.4c0,0.5,0.1,1,0.2,1.4c0.1,0.4,0.3,0.8,0.5,1c0.2,0.3,0.5,0.5,0.8,0.7
		c0.3,0.2,0.6,0.2,1,0.2c0.4,0,0.7-0.1,1-0.2s0.6-0.4,0.8-0.6c0.2-0.3,0.4-0.6,0.5-1c0.1-0.4,0.2-0.8,0.2-1.4c0-1-0.2-1.9-0.6-2.5
		C129.1,37.7,128.5,37.4,127.7,37.4z"/>
	<path class="st0" d="M149.3,46.1h-3.2v-5.7c0-0.4,0-0.7,0-1.1s0-0.8,0.1-1.2h-0.1c-0.1,0.3-0.1,0.6-0.2,0.9
		c-0.1,0.3-0.1,0.5-0.2,0.6l-2.1,6.5H141l-2.2-6.5c0-0.1-0.1-0.3-0.2-0.5c-0.1-0.3-0.1-0.6-0.2-1h-0.1c0,0.3,0,0.5,0.1,0.7
		c0,0.2,0,0.4,0,0.5s0,0.3,0,0.5c0,0.2,0,0.3,0,0.5v5.8h-2.8V35.3h4.5l1.8,5.4c0.1,0.3,0.2,0.5,0.2,0.8c0.1,0.3,0.1,0.6,0.2,0.8h0.1
		c0.1-0.3,0.2-0.6,0.2-0.9s0.2-0.6,0.2-0.8l1.8-5.4h4.6V46.1z"/>
	<path class="st0" d="M159.6,46.1h-7.2V35.3h6.9v2.2h-3.7v2.1h3.4v2.2h-3.4v2.2h4V46.1z"/>
</g>
</svg>
