<?xml version="1.0" encoding="utf-8"?>
<!-- Generator: Adobe Illustrator 19.2.1, SVG Export Plug-In . SVG Version: 6.00 Build 0)  -->
<svg version="1.1" id="Layer_1" xmlns="http://www.w3.org/2000/svg" xmlns:xlink="http://www.w3.org/1999/xlink" x="0px" y="0px"
	 viewBox="0 0 161 49" style="enable-background:new 0 0 161 49;" xml:space="preserve">
<style type="text/css">
	.st0{fill:#F05926;}
	.st1{fill:#1D4077;}
</style>
<path class="st0" d="M97,29.6c0,0-40.1-5-61.2-28.5L0.6,29.6h6.8v16.6h4.1V26L35.9,6.7c0,0,17.6,16.1,43.3,22.7L97,29.6z"/>
<rect x="36.5" y="17.1" class="st1" width="4.5" height="4.5"/>
<rect x="36.5" y="22.8" class="st1" width="4.5" height="4.5"/>
<rect x="30.8" y="22.8" class="st1" width="4.5" height="4.5"/>
<rect x="30.8" y="17.1" class="st1" width="4.5" height="4.5"/>
<g>
	<path class="st1" d="M28.1,46.3h-3.6l-1-3.2h-5.1l-1,3.2h-3.5l5.3-14.5H23L28.1,46.3z M22.8,40.5l-1.6-4.9
		c-0.1-0.4-0.2-0.8-0.2-1.3h-0.1c0,0.4-0.1,0.8-0.3,1.3l-1.6,4.9H22.8z"/>
	<path class="st1" d="M39.6,45.5c-0.6,0.3-1.2,0.6-2,0.7c-0.7,0.2-1.5,0.3-2.4,0.3c-1,0-1.8-0.1-2.6-0.4c-0.8-0.2-1.4-0.6-2-1.1
		s-1-1-1.2-1.7C29.1,42.6,29,41.9,29,41s0.2-1.6,0.5-2.3c0.3-0.7,0.8-1.3,1.4-1.8c0.6-0.5,1.3-0.9,2.1-1.2c0.8-0.3,1.7-0.4,2.7-0.4
		c1.3,0,2.4,0.2,3.4,0.5v2.5c-0.9-0.5-1.9-0.7-3.2-0.7c-0.5,0-1,0.1-1.4,0.2c-0.4,0.2-0.8,0.4-1.1,0.7c-0.3,0.3-0.6,0.7-0.7,1.1
		c-0.2,0.4-0.3,0.9-0.3,1.4c0,0.5,0.1,1,0.2,1.4c0.1,0.4,0.3,0.8,0.6,1c0.3,0.3,0.6,0.5,0.9,0.6s0.8,0.2,1.2,0.2
		c0.3,0,0.5,0,0.7-0.1c0.2,0,0.3-0.1,0.5-0.2v-1.8h-1.9V40h5.1V45.5z"/>
	<path class="st1" d="M45.8,46.3h-3.2V35.4h3.2V46.3z"/>
	<path class="st1" d="M59.7,46.3h-3.1l-4.1-5.9c-0.1-0.2-0.3-0.4-0.4-0.5c-0.1-0.2-0.2-0.3-0.2-0.4h0c0,0.2,0,0.4,0,0.8
		c0,0.3,0,0.7,0,1.1v5.1h-3V35.4h3.3l4,5.7c0.1,0.2,0.2,0.3,0.3,0.5c0.1,0.2,0.2,0.3,0.3,0.5h0c0-0.1,0-0.3,0-0.6c0-0.3,0-0.6,0-1
		v-5.1h3V46.3z"/>
	<path class="st1" d="M72.6,45.5c-0.6,0.3-1.2,0.6-2,0.7c-0.7,0.2-1.5,0.3-2.4,0.3c-1,0-1.8-0.1-2.6-0.4c-0.8-0.2-1.4-0.6-2-1.1
		s-1-1-1.2-1.7C62.1,42.6,62,41.9,62,41s0.2-1.6,0.5-2.3c0.3-0.7,0.8-1.3,1.4-1.8c0.6-0.5,1.3-0.9,2.1-1.2c0.8-0.3,1.7-0.4,2.7-0.4
		c1.3,0,2.4,0.2,3.4,0.5v2.5c-0.9-0.5-1.9-0.7-3.2-0.7c-0.5,0-1,0.1-1.4,0.2c-0.4,0.2-0.8,0.4-1.1,0.7c-0.3,0.3-0.6,0.7-0.7,1.1
		c-0.2,0.4-0.3,0.9-0.3,1.4c0,0.5,0.1,1,0.2,1.4c0.1,0.4,0.3,0.8,0.6,1s0.6,0.5,0.9,0.6s0.8,0.2,1.2,0.2c0.3,0,0.5,0,0.7-0.1
		c0.2,0,0.3-0.1,0.5-0.2v-1.8h-1.9V40h5.1V45.5z"/>
	<path class="st1" d="M84.6,46.3h-3.3V31.8h3.3V46.3z"/>
	<path class="st1" d="M98.6,46.3h-3.1l-4.1-5.9c-0.1-0.2-0.3-0.4-0.4-0.5c-0.1-0.2-0.2-0.3-0.2-0.4h0c0,0.2,0,0.4,0,0.8s0,0.7,0,1.1
		v5.1h-3V35.4h3.3l4,5.7c0.1,0.2,0.2,0.3,0.3,0.5c0.1,0.2,0.2,0.3,0.3,0.5h0c0-0.1,0-0.3,0-0.6c0-0.3,0-0.6,0-1v-5.1h3V46.3z"/>
	<path class="st0" d="M120.1,46.3h-3.3v-5.9h-6v5.9h-3.3V31.8h3.3v5.8h6v-5.8h3.3V46.3z"/>
	<path class="st0" d="M128.2,46.5c-0.9,0-1.6-0.1-2.3-0.4c-0.7-0.3-1.3-0.6-1.8-1.1c-0.5-0.5-0.9-1.1-1.2-1.7s-0.4-1.4-0.4-2.2
		c0-0.9,0.1-1.6,0.4-2.3c0.3-0.7,0.7-1.3,1.2-1.8s1.1-0.9,1.9-1.2s1.5-0.4,2.4-0.4c0.8,0,1.6,0.1,2.3,0.4c0.7,0.3,1.3,0.6,1.8,1.1
		c0.5,0.5,0.9,1.1,1.2,1.7c0.3,0.7,0.4,1.4,0.4,2.3c0,0.8-0.1,1.6-0.4,2.3s-0.7,1.3-1.2,1.8c-0.5,0.5-1.1,0.9-1.8,1.2
		C129.9,46.3,129.1,46.5,128.2,46.5z M128.3,37.5c-0.4,0-0.8,0.1-1.1,0.2c-0.3,0.2-0.6,0.4-0.8,0.7c-0.2,0.3-0.4,0.6-0.5,1
		c-0.1,0.4-0.2,0.9-0.2,1.4c0,0.5,0.1,1,0.2,1.4c0.1,0.4,0.3,0.8,0.5,1c0.2,0.3,0.5,0.5,0.8,0.7c0.3,0.2,0.6,0.2,1,0.2
		c0.4,0,0.7-0.1,1-0.2s0.6-0.4,0.8-0.6c0.2-0.3,0.4-0.6,0.5-1s0.2-0.9,0.2-1.4c0-1-0.2-1.9-0.6-2.5S129.1,37.5,128.3,37.5z"/>
	<path class="st0" d="M150,46.3h-3.2v-5.8c0-0.4,0-0.7,0-1.1c0-0.4,0-0.8,0.1-1.2h-0.1c-0.1,0.3-0.1,0.6-0.2,0.9
		c-0.1,0.3-0.1,0.5-0.2,0.6l-2.1,6.5h-2.7l-2.2-6.6c0-0.1-0.1-0.3-0.2-0.5c-0.1-0.3-0.1-0.6-0.2-1H139c0,0.3,0,0.5,0.1,0.7
		c0,0.2,0,0.4,0,0.5c0,0.2,0,0.3,0,0.5s0,0.3,0,0.5v5.8h-2.8V35.4h4.5l1.8,5.4c0.1,0.3,0.2,0.5,0.2,0.8c0.1,0.3,0.1,0.6,0.2,0.8h0.1
		c0.1-0.3,0.2-0.6,0.2-0.9c0.1-0.3,0.2-0.6,0.2-0.8l1.8-5.4h4.6V46.3z"/>
	<path class="st0" d="M160.4,46.3h-7.2V35.4h6.9v2.2h-3.7v2.1h3.4v2.2h-3.4v2.2h4V46.3z"/>
</g>
</svg>
